<svg xmlns="http://www.w3.org/2000/svg" viewBox="0 0 124 124">
  <path d="M26.4 78.9c0 7.2-5.8 13-13 13s-13-5.8-13-13 5.8-13 13-13h13v13zm6.5 0c0-7.2 5.8-13 13-13s13 5.8 13 13v32.5c0 7.2-5.8 13-13 13s-13-5.8-13-13V78.9z" fill="#e01e5a"/>
  <path d="M45.9 26.4c-7.2 0-13-5.8-13-13s5.8-13 13-13 13 5.8 13 13v13h-13zm0 6.5c7.2 0 13 5.8 13 13s-5.8 13-13 13H13.4c-7.2 0-13-5.8-13-13s5.8-13 13-13h32.5z" fill="#36c5f0"/>
  <path d="M98.1 45.9c0-7.2 5.8-13 13-13s13 5.8 13 13-5.8 13-13 13h-13v-13zm-6.5 0c0 7.2-5.8 13-13 13s-13-5.8-13-13V13.4c0-7.2 5.8-13 13-13s13 5.8 13 13v32.5z" fill="#2eb67d"/>
  <path d="M78.6 98.1c7.2 0 13 5.8 13 13s-5.8 13-13 13-13-5.8-13-13v-13h13zm0-6.5c-7.2 0-13-5.8-13-13s5.8-13 13-13h32.5c7.2 0 13 5.8 13 13s-5.8 13-13 13H78.6z" fill="#ecb22e"/>
</svg>
