<?xml version="1.0" encoding="UTF-8" standalone="no"?>
<!DOCTYPE svg PUBLIC "-//W3C//DTD SVG 1.1//EN" "http://www.w3.org/Graphics/SVG/1.1/DTD/svg11.dtd">
<svg width="100%" height="100%" viewBox="0 0 800 800" version="1.1" xmlns="http://www.w3.org/2000/svg" xmlns:xlink="http://www.w3.org/1999/xlink" xml:space="preserve" xmlns:serif="http://www.serif.com/" style="fill-rule:evenodd;clip-rule:evenodd;stroke-linejoin:round;stroke-miterlimit:2;">
    <g transform="matrix(3.21224,0,0,3.21224,-884.954,-920.291)">
        <path d="M385.273,451.61C385.273,443.427 391.906,436.793 400.089,436.793C408.272,436.793 414.906,443.427 414.906,451.61L414.906,517.183C414.906,525.366 408.272,532 400.089,532C391.906,532 385.273,525.366 385.273,517.183L385.273,451.61Z" style="fill:white;fill-rule:nonzero;"/>
    </g>
    <g transform="matrix(3.21224,0,0,3.21224,-884.954,-920.291)">
        <path d="M494.028,362.311C488.889,350.162 481.534,339.25 472.164,329.883C462.794,320.516 451.885,313.16 439.736,308.019C427.157,302.699 413.794,300 400.024,300C386.253,300 372.89,302.699 360.311,308.019C348.163,313.158 337.251,320.513 327.883,329.883C318.516,339.253 311.16,350.162 306.019,362.311C300.699,374.89 298,388.253 298,402.023C298,415.794 300.699,429.156 306.019,441.735C311.158,453.884 318.513,464.796 327.883,474.163C337.251,483.531 348.163,490.886 360.311,496.027C364.238,497.689 368.242,499.094 372.309,500.242L372.309,490.738C358.128,486.326 345.133,478.518 334.332,467.717C316.786,450.171 307.122,426.839 307.122,402.023C307.122,377.207 316.786,353.879 334.332,336.329C351.879,318.783 375.21,309.119 400.026,309.119C424.843,309.119 448.171,318.783 465.72,336.329C483.267,353.876 492.93,377.207 492.93,402.023C492.93,426.839 483.267,450.168 465.72,467.717C455.065,478.373 442.272,486.115 428.314,490.558L428.314,500.074C432.184,498.957 436,497.612 439.741,496.03C451.89,490.892 462.802,483.536 472.17,474.166C481.537,464.799 488.892,453.887 494.033,441.738C499.354,429.156 502.053,415.796 502.053,402.026C502.053,388.256 499.354,374.893 494.033,362.314L494.028,362.311Z" style="fill:rgb(117,250,242);fill-rule:nonzero;"/>
    </g>
    <g transform="matrix(3.21224,0,0,3.21224,-884.954,-920.291)">
        <path d="M450.18,402.024C450.18,374.366 427.68,351.867 400.023,351.867C372.365,351.867 349.866,374.366 349.866,402.024C349.866,419.841 359.205,435.518 373.246,444.418C374.052,441.388 375.355,438.558 377.062,436.022C366.164,428.638 358.985,416.153 358.985,402.027C358.985,379.399 377.395,360.989 400.023,360.989C422.65,360.989 441.06,379.399 441.06,402.027C441.06,415.985 434.053,428.339 423.371,435.754C425.11,438.273 426.444,441.086 427.284,444.107C441.055,435.156 450.18,419.639 450.18,402.027L450.18,402.024Z" style="fill:rgb(117,250,242);fill-rule:nonzero;"/>
    </g>
    <g transform="matrix(3.21224,0,0,3.21224,-884.954,-920.291)">
        <path d="M476.399,402.023C476.399,381.624 468.453,362.442 454.027,348.019C439.602,333.593 420.422,325.648 400.023,325.648C379.624,325.648 360.442,333.593 346.019,348.019C331.594,362.445 323.648,381.624 323.648,402.023C323.648,422.422 331.594,441.604 346.019,456.027C353.631,463.639 362.568,469.444 372.309,473.231L372.309,463.334C365.013,460.034 358.299,455.409 352.469,449.578C339.764,436.876 332.771,419.986 332.771,402.02C332.771,384.055 339.767,367.167 352.469,354.463C365.17,341.758 382.061,334.765 400.026,334.765C417.992,334.765 434.88,341.761 447.584,354.463C460.289,367.164 467.282,384.055 467.282,402.02C467.282,419.986 460.286,436.874 447.584,449.578C441.904,455.258 435.387,459.792 428.314,463.075L428.314,473.003C437.832,469.213 446.57,463.488 454.033,456.027C468.459,441.601 476.404,422.422 476.404,402.023L476.399,402.023Z" style="fill:rgb(117,250,242);fill-rule:nonzero;"/>
    </g>
    <g transform="matrix(3.21224,0,0,3.21224,-884.954,-920.291)">
        <path d="M400.024,419.692C410.097,419.692 418.263,411.526 418.263,401.453C418.263,391.38 410.097,383.214 400.024,383.214C389.951,383.214 381.785,391.38 381.785,401.453C381.785,411.526 389.951,419.692 400.024,419.692Z" style="fill:white;fill-rule:nonzero;"/>
    </g>
</svg>
