<?xml version="1.0" encoding="UTF-8" standalone="no"?>
<svg
   width="24"
   height="24"
   viewBox="0 0 24 24"
   xmlns="http://www.w3.org/2000/svg"
>
  <defs
     id="defs121">
    <linearGradient
       x1="0.5"
       y1="0"
       x2="0.5"
       y2="0.99258339"
       id="linearGradient-1">
      <stop
         stop-color="#2AABEE"
         offset="0%"
         id="stop116" />
      <stop
         stop-color="#229ED9"
         offset="100%"
         id="stop118" />
    </linearGradient>
  </defs>
  <g
     stroke="none"
     stroke-width="1"
     fill="none"
     fill-rule="evenodd"
     transform="translate(-488,-488)">
    <circle
       id="Oval"
       fill="url(#linearGradient-1)"
       cx="500"
       cy="500"
       r="12"
       style="fill:#000000;fill-opacity:1;stroke-width:0.024" />
    <path
       d="m 493.43188,499.87333 c 3.49825,-1.52413 5.83096,-2.52893 6.99813,-3.0144 3.33253,-1.38611 4.025,-1.62689 4.47634,-1.63485 0.0993,-0.002 0.32123,0.0229 0.465,0.13952 0.12141,0.0985 0.15481,0.23158 0.17079,0.32498 0.016,0.0934 0.0359,0.30615 0.0201,0.4724 -0.18059,1.89748 -0.96201,6.50217 -1.35955,8.62739 -0.16821,0.89925 -0.49943,1.20077 -0.82009,1.23028 -0.69686,0.0641 -1.22602,-0.46054 -1.90097,-0.90297 -1.05615,-0.69233 -1.65282,-1.1233 -2.678,-1.79888 -1.18477,-0.78075 -0.41673,-1.20986 0.25847,-1.91115 0.1767,-0.18354 3.24709,-2.97629 3.30652,-3.22964 0.007,-0.0317 0.0143,-0.14979 -0.0558,-0.21216 -0.0702,-0.0624 -0.17372,-0.041 -0.24845,-0.0241 -0.10593,0.024 -1.79315,1.13924 -5.06167,3.34558 -0.47891,0.32886 -0.9127,0.48909 -1.30135,0.48069 -0.42847,-0.009 -1.25265,-0.24226 -1.86535,-0.44142 -0.7515,-0.24429 -1.34878,-0.37344 -1.29677,-0.78831 0.0271,-0.21609 0.32466,-0.43708 0.89272,-0.66298 z"
       id="Path-3"
       fill="#ffffff"
       style="stroke-width:0.024" />
  </g>
</svg>
