<?xml version="1.0" standalone="no"?>
<!DOCTYPE svg PUBLIC "-//W3C//DTD SVG 20010904//EN"
 "http://www.w3.org/TR/2001/REC-SVG-20010904/DTD/svg10.dtd">
<svg version="1.0" xmlns="http://www.w3.org/2000/svg"
 width="1280.000000pt" height="1156.000000pt" viewBox="0 0 1280.000000 1156.000000"
 preserveAspectRatio="xMidYMid meet">

<g transform="translate(0.000000,1156.000000) scale(0.100000,-0.100000)"
fill="#000000" stroke="none">
<path d="M0 11529 c0 -25 406 -562 2383 -3151 1310 -1716 2382 -3125 2381
-3132 -1 -10 -4425 -5104 -4527 -5214 l-31 -32 985 1 984 0 1750 2000 c963
1100 1759 2009 1771 2019 l20 20 1545 -2020 1544 -2020 1973 0 c1086 0 1972 4
1970 9 -2 4 -1132 1500 -2512 3324 -1380 1823 -2508 3319 -2506 3324 1 6 3018
3444 4233 4825 l69 78 -984 -1 -983 0 -1575 -1780 c-866 -979 -1602 -1810
-1635 -1846 l-60 -65 -1395 1845 -1395 1846 -2002 1 -2003 0 0 -31z m6933
-5704 c1924 -2541 3507 -4632 3518 -4647 l20 -28 -543 0 -544 0 -3555 4641
c-1955 2553 -3556 4645 -3557 4650 -2 5 243 8 580 7 l583 -3 3498 -4620z"/>
</g>
</svg>
