<?xml version="1.0" encoding="UTF-8"?><svg id="l" xmlns="http://www.w3.org/2000/svg" xmlns:xlink="http://www.w3.org/1999/xlink" viewBox="0 0 1000 1000"><defs><symbol id="a" viewBox="0 0 2865.3 437.72"><g style="isolation:isolate;"><path d="M238.73,125.38h76.4v304.5h-76.4v-32.18c-14.91,14.18-29.87,24.4-44.87,30.65-15,6.25-31.26,9.37-48.78,9.37-39.32,0-73.33-15.25-102.04-45.76C14.35,361.45,0,323.53,0,278.19s13.89-85.54,41.65-115.58c27.77-30.04,61.5-45.06,101.19-45.06,18.26,0,35.4,3.45,51.43,10.35,16.03,6.91,30.84,17.26,44.45,31.07v-33.58ZM158.41,188.07c-23.62,0-43.24,8.35-58.86,25.05-15.62,16.7-23.43,38.11-23.43,64.23s7.95,47.96,23.84,64.93c15.9,16.98,35.47,25.47,58.72,25.47s43.89-8.35,59.69-25.05c15.8-16.7,23.71-38.57,23.71-65.63s-7.9-47.95-23.71-64.37c-15.81-16.42-35.8-24.63-59.97-24.63Z" style="fill:#fd4b2d;"/><path d="M403.16,125.38h77.24v146.65c0,28.55,1.96,48.37,5.89,59.47,3.93,11.1,10.24,19.73,18.94,25.89,8.69,6.16,19.4,9.24,32.12,9.24s23.52-3.03,32.4-9.1c8.88-6.06,15.47-14.97,19.78-26.73,3.18-8.77,4.77-27.52,4.77-56.25V125.38h76.41v129.02c0,53.18-4.2,89.56-12.59,109.15-10.26,23.88-25.38,42.22-45.34,54.99-19.97,12.78-45.34,19.17-76.13,19.17-33.4,0-60.41-7.46-81.02-22.39-20.62-14.92-35.13-35.73-43.52-62.41-5.97-18.47-8.96-52.06-8.96-100.75v-126.78Z" style="fill:#fd4b2d;"/><path d="M796.76,13.15h76.41v112.23h45.34v65.77h-45.34v238.73h-76.41v-238.73h-39.18v-65.77h39.18V13.15Z" style="fill:#fd4b2d;"/><path d="M999.76,7.84h75.85v148.33c14.93-12.88,29.95-22.53,45.06-28.97,15.11-6.44,30.41-9.65,45.9-9.65,30.23,0,55.7,10.45,76.41,31.34,17.73,18.1,26.59,44.69,26.59,79.76v201.23h-75.29v-133.5c0-35.27-1.68-59.15-5.04-71.65-3.36-12.5-9.09-21.83-17.21-27.99-8.12-6.15-18.15-9.23-30.09-9.23-15.49,0-28.78,5.13-39.88,15.39-11.11,10.26-18.8,24.26-23.09,41.98-2.24,9.14-3.36,30.04-3.36,62.69v122.3h-75.85V7.84Z" style="fill:#fd4b2d;"/><path d="M1688.63,299.74h-245.45c3.54,21.65,13.01,38.86,28.41,51.64,15.39,12.78,35.03,19.17,58.91,19.17,28.55,0,53.08-9.98,73.6-29.95l64.37,30.23c-16.05,22.77-35.26,39.6-57.65,50.52-22.39,10.91-48.98,16.37-79.76,16.37-47.77,0-86.67-15.06-116.71-45.2-30.04-30.13-45.06-67.87-45.06-113.21s14.97-85.03,44.92-115.73c29.95-30.69,67.49-46.04,112.65-46.04,47.95,0,86.95,15.35,116.99,46.04,30.04,30.69,45.06,71.23,45.06,121.61l-.28,14.55ZM1612.22,239.57c-5.05-16.98-15-30.79-29.86-41.42-14.86-10.63-32.1-15.95-51.72-15.95-21.3,0-40,5.98-56.07,17.91-10.09,7.47-19.44,20.62-28.03,39.46h165.68Z" style="fill:#fd4b2d;"/><path d="M1790.6,125.38h76.41v31.21c17.33-14.61,33.02-24.77,47.09-30.48,14.06-5.71,28.46-8.57,43.18-8.57,30.18,0,55.8,10.54,76.85,31.62,17.7,17.91,26.55,44.41,26.55,79.48v201.23h-75.57v-133.35c0-36.34-1.63-60.47-4.89-72.4-3.26-11.93-8.93-21.01-17.03-27.26-8.1-6.24-18.1-9.36-30.01-9.36-15.45,0-28.71,5.17-39.78,15.51-11.08,10.35-18.76,24.65-23.04,42.91-2.24,9.5-3.35,30.1-3.35,61.78v122.16h-76.41V125.38Z" style="fill:#fd4b2d;"/><path d="M2183.92,13.15h76.41v112.23h45.34v65.77h-45.34v238.73h-76.41v-238.73h-39.18v-65.77h39.18V13.15Z" style="fill:#fd4b2d;"/><path d="M2416.46,0c13.39,0,24.88,4.85,34.46,14.55,9.58,9.7,14.38,21.46,14.38,35.27s-4.75,25.24-14.24,34.84c-9.49,9.61-20.84,14.41-34.04,14.41s-25.16-4.9-34.75-14.69c-9.58-9.79-14.37-21.69-14.37-35.68s4.74-24.91,14.23-34.43c9.49-9.51,20.93-14.27,34.33-14.27ZM2378.26,125.38h76.41v304.5h-76.41V125.38Z" style="fill:#fd4b2d;"/><path d="M2564.75,7.84h76.41v243.09l112.51-125.54h95.96l-131.17,145.94,146.86,158.56h-94.85l-129.3-140.34v140.34h-76.41V7.84Z" style="fill:#fd4b2d;"/></g></symbol></defs><path d="M689.34,93.81h-329.14c-72.05,0-131,58.95-131,131v329.14c0,72.05,58.95,131,131,131h38.83v-128.22h251.49v128.22h38.81c72.05,0,131-58.95,131-131V224.81c0-72.05-58.95-131-131-131ZM632.3,452.55H229.41v-88.61h208.16v-123.03h33.8v73.29h19.82v-73.29h23.9v53.9h19.82v-53.9h23.9v90.04h19.82v-90.04h33.8v123.03h19.88v88.61Z" style="fill:#fd4b2d;"/><g id="m"><path d="M230.92,358.64h-.02c-19.61-26.52-49.01-53.52-81.58-53.52-37.46.03-71.89,20.57-89.7,53.52-37.21,64.9,14.23,152.42,89.7,150.42,58.4,0,106.56-86.64,106.56-101.97,0-6.78-9.42-27.46-24.96-48.46ZM107.07,358.64c21.02-18.14,51.54-23.42,73.6,0h.02c16.65,15.1,31.18,37.08,36.44,48.26-65.47,136.9-180.22,20.22-110.06-48.26Z" style="fill:#fd4b2d;"/></g><path d="M689.34,93.81h-329.14c-72.05,0-131,58.95-131,131v329.14c0,72.05,58.95,131,131,131h38.83v-128.22h251.49v128.22h38.81c72.05,0,131-58.95,131-131V224.81c0-72.05-58.95-131-131-131ZM632.3,452.55H229.41v-88.61h208.16v-123.03h33.8v73.29h19.82v-73.29h23.9v53.9h19.82v-53.9h23.9v90.04h19.82v-90.04h33.8v123.03h19.88v88.61Z" style="fill:#fff;"/><g id="n"><path d="M230.92,358.64h-.02c-19.61-26.52-49.01-53.52-81.58-53.52-37.46.03-71.89,20.57-89.7,53.52-37.21,64.9,14.23,152.42,89.7,150.42,58.4,0,106.56-86.64,106.56-101.97,0-6.78-9.42-27.46-24.96-48.46ZM107.07,358.64c21.02-18.14,51.54-23.42,73.6,0h.02c16.65,15.1,31.18,37.08,36.44,48.26-65.47,136.9-180.22,20.22-110.06-48.26Z" style="fill:#fff;"/></g><use width="2865.3" height="437.72" transform="translate(15.42 748.04) scale(.34)" xlink:href="#a"/><path d="M97.01,790.9h26.11v104.07h-26.11v-11c-5.1,4.85-10.21,8.34-15.34,10.47-5.13,2.14-10.68,3.2-16.67,3.2-13.44,0-25.06-5.21-34.87-15.64-9.81-10.43-14.71-23.39-14.71-38.88s4.75-29.24,14.24-39.5c9.49-10.27,21.02-15.4,34.59-15.4,6.24,0,12.1,1.18,17.58,3.54,5.48,2.36,10.54,5.9,15.19,10.62v-11.48ZM69.56,812.32c-8.07,0-14.78,2.86-20.12,8.56-5.34,5.71-8.01,13.03-8.01,21.95s2.72,16.39,8.15,22.19c5.44,5.8,12.12,8.7,20.07,8.7s15-2.85,20.4-8.56c5.4-5.71,8.1-13.18,8.1-22.43s-2.7-16.39-8.1-22c-5.4-5.61-12.23-8.42-20.5-8.42Z" style="fill:#fff;"/><path d="M153.21,790.9h26.4v50.12c0,9.76.67,16.53,2.01,20.33,1.34,3.79,3.5,6.74,6.47,8.85,2.97,2.1,6.63,3.16,10.98,3.16s8.04-1.04,11.08-3.11c3.04-2.07,5.29-5.12,6.76-9.14,1.09-3,1.63-9.41,1.63-19.23v-50.98h26.11v44.1c0,18.17-1.44,30.61-4.3,37.31-3.51,8.16-8.67,14.43-15.5,18.8-6.83,4.37-15.5,6.55-26.02,6.55-11.42,0-20.65-2.55-27.69-7.65-7.05-5.1-12.01-12.21-14.87-21.33-2.04-6.31-3.06-17.79-3.06-34.44v-43.33Z" style="fill:#fff;"/><path d="M287.73,752.54h26.11v38.36h15.5v22.48h-15.5v81.59h-26.11v-81.59h-13.39v-22.48h13.39v-38.36Z" style="fill:#fff;"/><path d="M357.11,750.72h25.92v50.7c5.1-4.4,10.23-7.7,15.4-9.9s10.39-3.3,15.69-3.3c10.33,0,19.04,3.57,26.11,10.71,6.06,6.19,9.09,15.27,9.09,27.26v68.78h-25.73v-45.63c0-12.05-.57-20.21-1.72-24.49-1.15-4.27-3.11-7.46-5.88-9.57-2.77-2.1-6.2-3.16-10.28-3.16-5.29,0-9.84,1.75-13.63,5.26-3.8,3.51-6.43,8.29-7.89,14.35-.77,3.13-1.15,10.27-1.15,21.43v41.8h-25.92v-144.25Z" style="fill:#fff;"/><path d="M592.55,850.49h-83.89c1.21,7.4,4.45,13.28,9.71,17.65,5.26,4.37,11.97,6.55,20.14,6.55,9.76,0,18.14-3.41,25.16-10.23l22,10.33c-5.48,7.78-12.05,13.54-19.7,17.27-7.65,3.73-16.74,5.6-27.26,5.6-16.33,0-29.62-5.15-39.89-15.45-10.27-10.3-15.4-23.2-15.4-38.69s5.12-29.06,15.35-39.55c10.24-10.49,23.07-15.73,38.5-15.73,16.39,0,29.72,5.25,39.98,15.73,10.27,10.49,15.4,24.34,15.4,41.56l-.1,4.97ZM566.44,829.92c-1.72-5.8-5.13-10.52-10.2-14.16-5.08-3.63-10.97-5.45-17.68-5.45-7.28,0-13.67,2.04-19.16,6.12-3.45,2.55-6.64,7.05-9.58,13.49h56.63Z" style="fill:#fff;"/><path d="M627.41,790.9h26.11v10.67c5.92-4.99,11.29-8.46,16.09-10.42,4.81-1.95,9.73-2.93,14.76-2.93,10.32,0,19.07,3.6,26.27,10.81,6.05,6.12,9.07,15.18,9.07,27.17v68.78h-25.83v-45.57c0-12.42-.56-20.67-1.67-24.74-1.11-4.08-3.05-7.18-5.82-9.32-2.77-2.13-6.19-3.2-10.26-3.2-5.28,0-9.81,1.77-13.6,5.3-3.79,3.54-6.41,8.43-7.87,14.67-.76,3.25-1.14,10.29-1.14,21.11v41.75h-26.11v-104.07Z" style="fill:#fff;"/><path d="M761.83,752.54h26.11v38.36h15.5v22.48h-15.5v81.59h-26.11v-81.59h-13.39v-22.48h13.39v-38.36Z" style="fill:#fff;"/><path d="M841.31,748.04c4.58,0,8.5,1.66,11.78,4.97,3.28,3.32,4.91,7.33,4.91,12.05s-1.62,8.63-4.87,11.91c-3.24,3.29-7.12,4.93-11.64,4.93s-8.6-1.67-11.88-5.02c-3.28-3.35-4.91-7.41-4.91-12.2s1.62-8.51,4.86-11.77c3.24-3.25,7.15-4.88,11.73-4.88ZM828.25,790.9h26.11v104.07h-26.11v-104.07Z" style="fill:#fff;"/><path d="M891.99,750.72h26.11v83.08l38.45-42.91h32.8l-44.83,49.88,50.19,54.19h-32.42l-44.19-47.96v47.96h-26.11v-144.25Z" style="fill:#fff;"/></svg>