<?xml version="1.0" encoding="UTF-8"?><svg id="c" xmlns="http://www.w3.org/2000/svg" xmlns:xlink="http://www.w3.org/1999/xlink" viewBox="0 0 1000 1000"><defs><symbol id="a" viewBox="0 0 998.94 763.82"><path d="M829.67,0h-425.28c-93.1,0-169.27,76.17-169.27,169.27v425.28c0,93.1,76.17,169.27,169.27,169.27h50.18v-165.68h324.96v165.68h50.14c93.1,0,169.27-76.17,169.27-169.27V169.27C998.94,76.17,922.77,0,829.67,0ZM755.98,463.53H235.4v-114.49h268.96v-158.97h43.68v94.7h25.61v-94.7h30.88v69.64h25.61v-69.64h30.88v116.35h25.61v-116.35h43.68v158.97h25.69v114.49Z" style="fill:#fd4b2d;"/><g id="b"><path d="M237.36,342.19h-.02c-25.34-34.27-63.32-69.15-105.42-69.15-48.4.03-92.89,26.58-115.91,69.15-48.08,83.85,18.39,196.94,115.91,194.36,75.46,0,137.69-111.95,137.69-131.75,0-8.76-12.18-35.49-32.25-62.61ZM77.32,342.19c27.16-23.43,66.59-30.27,95.1,0h.02c21.51,19.51,40.28,47.91,47.08,62.35-84.6,176.88-232.87,26.13-142.2-62.35Z" style="fill:#fd4b2d;"/></g></symbol></defs><use width="998.94" height="763.82" transform="translate(1 117.03)" xlink:href="#a"/></svg>