<?xml version="1.0" encoding="UTF-8"?><svg id="h" xmlns="http://www.w3.org/2000/svg" xmlns:xlink="http://www.w3.org/1999/xlink" viewBox="0 0 3767.3 592.89"><defs><symbol id="a" viewBox="0 0 2865.3 437.72"><g style="isolation:isolate;"><path d="M238.73,125.38h76.4v304.5h-76.4v-32.18c-14.91,14.18-29.87,24.4-44.87,30.65-15,6.25-31.26,9.37-48.78,9.37-39.32,0-73.33-15.25-102.04-45.76C14.35,361.45,0,323.53,0,278.19s13.89-85.54,41.65-115.58c27.77-30.04,61.5-45.06,101.19-45.06,18.26,0,35.4,3.45,51.43,10.35,16.03,6.91,30.84,17.26,44.45,31.07v-33.58ZM158.41,188.07c-23.62,0-43.24,8.35-58.86,25.05-15.62,16.7-23.43,38.11-23.43,64.23s7.95,47.96,23.84,64.93c15.9,16.98,35.47,25.47,58.72,25.47s43.89-8.35,59.69-25.05c15.8-16.7,23.71-38.57,23.71-65.63s-7.9-47.95-23.71-64.37c-15.81-16.42-35.8-24.63-59.97-24.63Z" style="fill:#fd4b2d;"/><path d="M403.16,125.38h77.24v146.65c0,28.55,1.96,48.37,5.89,59.47,3.93,11.1,10.24,19.73,18.94,25.89,8.69,6.16,19.4,9.24,32.12,9.24s23.52-3.03,32.4-9.1c8.88-6.06,15.47-14.97,19.78-26.73,3.18-8.77,4.77-27.52,4.77-56.25V125.38h76.41v129.02c0,53.18-4.2,89.56-12.59,109.15-10.26,23.88-25.38,42.22-45.34,54.99-19.97,12.78-45.34,19.17-76.13,19.17-33.4,0-60.41-7.46-81.02-22.39-20.62-14.92-35.13-35.73-43.52-62.41-5.97-18.47-8.96-52.06-8.96-100.75v-126.78Z" style="fill:#fd4b2d;"/><path d="M796.76,13.15h76.41v112.23h45.34v65.77h-45.34v238.73h-76.41v-238.73h-39.18v-65.77h39.18V13.15Z" style="fill:#fd4b2d;"/><path d="M999.76,7.84h75.85v148.33c14.93-12.88,29.95-22.53,45.06-28.97,15.11-6.44,30.41-9.65,45.9-9.65,30.23,0,55.7,10.45,76.41,31.34,17.73,18.1,26.59,44.69,26.59,79.76v201.23h-75.29v-133.5c0-35.27-1.68-59.15-5.04-71.65-3.36-12.5-9.09-21.83-17.21-27.99-8.12-6.15-18.15-9.23-30.09-9.23-15.49,0-28.78,5.13-39.88,15.39-11.11,10.26-18.8,24.26-23.09,41.98-2.24,9.14-3.36,30.04-3.36,62.69v122.3h-75.85V7.84Z" style="fill:#fd4b2d;"/><path d="M1688.63,299.74h-245.45c3.54,21.65,13.01,38.86,28.41,51.64,15.39,12.78,35.03,19.17,58.91,19.17,28.55,0,53.08-9.98,73.6-29.95l64.37,30.23c-16.05,22.77-35.26,39.6-57.65,50.52-22.39,10.91-48.98,16.37-79.76,16.37-47.77,0-86.67-15.06-116.71-45.2-30.04-30.13-45.06-67.87-45.06-113.21s14.97-85.03,44.92-115.73c29.95-30.69,67.49-46.04,112.65-46.04,47.95,0,86.95,15.35,116.99,46.04,30.04,30.69,45.06,71.23,45.06,121.61l-.28,14.55ZM1612.22,239.57c-5.05-16.98-15-30.79-29.86-41.42-14.86-10.63-32.1-15.95-51.72-15.95-21.3,0-40,5.98-56.07,17.91-10.09,7.47-19.44,20.62-28.03,39.46h165.68Z" style="fill:#fd4b2d;"/><path d="M1790.6,125.38h76.41v31.21c17.33-14.61,33.02-24.77,47.09-30.48,14.06-5.71,28.46-8.57,43.18-8.57,30.18,0,55.8,10.54,76.85,31.62,17.7,17.91,26.55,44.41,26.55,79.48v201.23h-75.57v-133.35c0-36.34-1.63-60.47-4.89-72.4-3.26-11.93-8.93-21.01-17.03-27.26-8.1-6.24-18.1-9.36-30.01-9.36-15.45,0-28.71,5.17-39.78,15.51-11.08,10.35-18.76,24.65-23.04,42.91-2.24,9.5-3.35,30.1-3.35,61.78v122.16h-76.41V125.38Z" style="fill:#fd4b2d;"/><path d="M2183.92,13.15h76.41v112.23h45.34v65.77h-45.34v238.73h-76.41v-238.73h-39.18v-65.77h39.18V13.15Z" style="fill:#fd4b2d;"/><path d="M2416.46,0c13.39,0,24.88,4.85,34.46,14.55,9.58,9.7,14.38,21.46,14.38,35.27s-4.75,25.24-14.24,34.84c-9.49,9.61-20.84,14.41-34.04,14.41s-25.16-4.9-34.75-14.69c-9.58-9.79-14.37-21.69-14.37-35.68s4.74-24.91,14.23-34.43c9.49-9.51,20.93-14.27,34.33-14.27ZM2378.26,125.38h76.41v304.5h-76.41V125.38Z" style="fill:#fd4b2d;"/><path d="M2564.75,7.84h76.41v243.09l112.51-125.54h95.96l-131.17,145.94,146.86,158.56h-94.85l-129.3-140.34v140.34h-76.41V7.84Z" style="fill:#fd4b2d;"/></g></symbol></defs><path d="M594.05,38.06h-289.87c-63.46,0-115.37,51.92-115.37,115.37v289.87c0,63.46,51.92,115.37,115.37,115.37h34.2v-112.93h221.49v112.93h34.18c63.46,0,115.37-51.92,115.37-115.37V153.43c0-63.46-51.92-115.37-115.37-115.37ZM543.82,354H188.99v-78.04h183.33v-108.36h29.77v64.55h17.45v-64.55h21.05v47.47h17.45v-47.47h21.05v79.3h17.45v-79.3h29.77v108.36h17.51v78.04Z" style="fill:#fd4b2d;"/><g id="i"><path d="M190.32,271.3h-.01c-17.27-23.36-43.16-47.14-71.85-47.14-32.99.02-63.31,18.12-79,47.14-32.77,57.15,12.53,134.23,79,132.48,51.43,0,93.85-76.31,93.85-89.8,0-5.97-8.3-24.19-21.98-42.68ZM81.24,271.3c18.51-15.97,45.39-20.63,64.82,0h.01c14.66,13.3,27.46,32.66,32.09,42.5-57.66,120.57-158.73,17.81-96.93-42.5Z" style="fill:#fd4b2d;"/></g><path d="M594.05,38.06h-289.87c-63.46,0-115.37,51.92-115.37,115.37v289.87c0,63.46,51.92,115.37,115.37,115.37h34.2v-112.93h221.49v112.93h34.18c63.46,0,115.37-51.92,115.37-115.37V153.43c0-63.46-51.92-115.37-115.37-115.37ZM543.82,354H188.99v-78.04h183.33v-108.36h29.77v64.55h17.45v-64.55h21.05v47.47h17.45v-47.47h21.05v79.3h17.45v-79.3h29.77v108.36h17.51v78.04Z" style="fill:#fff;"/><g id="j"><path d="M190.32,271.3h-.01c-17.27-23.36-43.16-47.14-71.85-47.14-32.99.02-63.31,18.12-79,47.14-32.77,57.15,12.53,134.23,79,132.48,51.43,0,93.85-76.31,93.85-89.8,0-5.97-8.3-24.19-21.98-42.68ZM81.24,271.3c18.51-15.97,45.39-20.63,64.82,0h.01c14.66,13.3,27.46,32.66,32.09,42.5-57.66,120.57-158.73,17.81-96.93-42.5Z" style="fill:#fff;"/></g><use width="2865.3" height="437.72" transform="translate(802.22 69.74)" xlink:href="#a"/><path d="M1040.95,195.12h76.4v304.5h-76.4v-32.18c-14.91,14.18-29.87,24.4-44.87,30.65-15,6.25-31.26,9.37-48.78,9.37-39.32,0-73.33-15.25-102.04-45.76-28.7-30.51-43.05-68.43-43.05-113.77s13.89-85.54,41.65-115.58c27.77-30.04,61.5-45.06,101.19-45.06,18.26,0,35.4,3.45,51.43,10.35,16.03,6.91,30.84,17.26,44.45,31.07v-33.58ZM960.63,257.81c-23.62,0-43.24,8.35-58.86,25.05-15.62,16.7-23.43,38.11-23.43,64.23s7.95,47.96,23.84,64.93c15.9,16.98,35.47,25.47,58.72,25.47s43.89-8.35,59.69-25.05c15.8-16.7,23.71-38.57,23.71-65.63s-7.9-47.95-23.71-64.37c-15.81-16.42-35.8-24.63-59.97-24.63Z" style="fill:#fff;"/><path d="M1205.38,195.12h77.24v146.65c0,28.55,1.96,48.37,5.89,59.47,3.93,11.1,10.24,19.73,18.94,25.89,8.69,6.16,19.4,9.24,32.12,9.24s23.52-3.03,32.4-9.1c8.88-6.06,15.47-14.97,19.78-26.73,3.18-8.77,4.77-27.52,4.77-56.25v-149.17h76.41v129.02c0,53.18-4.2,89.56-12.59,109.15-10.26,23.88-25.38,42.22-45.34,54.99-19.97,12.78-45.34,19.17-76.13,19.17-33.4,0-60.41-7.46-81.02-22.39-20.62-14.92-35.13-35.73-43.52-62.41-5.97-18.47-8.96-52.06-8.96-100.75v-126.78Z" style="fill:#fff;"/><path d="M1598.98,82.89h76.41v112.23h45.34v65.77h-45.34v238.73h-76.41v-238.73h-39.18v-65.77h39.18v-112.23Z" style="fill:#fff;"/><path d="M1801.98,77.57h75.85v148.33c14.93-12.88,29.95-22.53,45.06-28.97,15.11-6.44,30.41-9.65,45.9-9.65,30.23,0,55.7,10.45,76.41,31.34,17.73,18.1,26.59,44.69,26.59,79.76v201.23h-75.29v-133.5c0-35.27-1.68-59.15-5.04-71.65-3.36-12.5-9.09-21.83-17.21-27.99-8.12-6.15-18.15-9.23-30.09-9.23-15.49,0-28.78,5.13-39.88,15.39-11.11,10.26-18.8,24.26-23.09,41.98-2.24,9.14-3.36,30.04-3.36,62.69v122.3h-75.85V77.57Z" style="fill:#fff;"/><path d="M2490.85,369.48h-245.45c3.54,21.65,13.01,38.86,28.41,51.64,15.39,12.78,35.03,19.17,58.91,19.17,28.55,0,53.08-9.98,73.6-29.95l64.37,30.23c-16.05,22.77-35.26,39.6-57.65,50.52-22.39,10.91-48.98,16.37-79.76,16.37-47.77,0-86.67-15.06-116.71-45.2-30.04-30.13-45.06-67.87-45.06-113.21s14.97-85.03,44.92-115.73c29.95-30.69,67.49-46.04,112.65-46.04,47.95,0,86.95,15.35,116.99,46.04,30.04,30.69,45.06,71.23,45.06,121.61l-.28,14.55ZM2414.44,309.3c-5.05-16.98-15-30.79-29.86-41.42-14.86-10.63-32.1-15.95-51.72-15.95-21.3,0-40,5.98-56.07,17.91-10.09,7.47-19.44,20.62-28.03,39.46h165.68Z" style="fill:#fff;"/><path d="M2592.82,195.12h76.41v31.21c17.33-14.61,33.02-24.77,47.09-30.48,14.06-5.71,28.46-8.57,43.18-8.57,30.18,0,55.8,10.54,76.85,31.62,17.7,17.91,26.55,44.41,26.55,79.48v201.23h-75.57v-133.35c0-36.34-1.63-60.47-4.89-72.4-3.26-11.93-8.93-21.01-17.03-27.26-8.1-6.24-18.1-9.36-30.01-9.36-15.45,0-28.71,5.17-39.78,15.51-11.08,10.35-18.76,24.65-23.04,42.91-2.24,9.5-3.35,30.1-3.35,61.78v122.16h-76.41V195.12Z" style="fill:#fff;"/><path d="M2986.14,82.89h76.41v112.23h45.34v65.77h-45.34v238.73h-76.41v-238.73h-39.18v-65.77h39.18v-112.23Z" style="fill:#fff;"/><path d="M3218.68,69.74c13.39,0,24.88,4.85,34.46,14.55,9.58,9.7,14.38,21.46,14.38,35.27s-4.75,25.24-14.24,34.84c-9.49,9.61-20.84,14.41-34.04,14.41s-25.16-4.9-34.75-14.69c-9.58-9.79-14.37-21.69-14.37-35.68s4.74-24.91,14.23-34.43c9.49-9.51,20.93-14.27,34.33-14.27ZM3180.48,195.12h76.41v304.5h-76.41V195.12Z" style="fill:#fff;"/><path d="M3366.97,77.57h76.41v243.09l112.51-125.54h95.96l-131.17,145.94,146.86,158.56h-94.85l-129.3-140.34v140.34h-76.41V77.57Z" style="fill:#fff;"/></svg>