<?xml version="1.0" encoding="iso-8859-1"?>
<!-- Generator: Adobe Illustrator 19.0.0, SVG Export Plug-In . SVG Version: 6.00 Build 0)  -->
<svg version="1.1" id="Capa_1" xmlns="http://www.w3.org/2000/svg" xmlns:xlink="http://www.w3.org/1999/xlink" x="0px" y="0px"
	 viewBox="0 0 512 512" style="enable-background:new 0 0 512 512;" xml:space="preserve">
<path style="fill:#57565C;" d="M407,512H105C47.103,512,0,464.897,0,407V105C0,47.103,47.103,0,105,0h302
	c57.897,0,105,47.103,105,105v302C512,464.897,464.897,512,407,512z"/>
<path style="fill:#3E3D42;" d="M407,0H256v512h151c57.897,0,105-47.103,105-105V105C512,47.103,464.897,0,407,0z"/>
<rect x="91" y="141" style="fill:#00C3FF;" width="330" height="44"/>
<rect x="256" y="141" style="fill:#00AAF0;" width="165" height="44"/>
<rect x="91" y="176" style="fill:#FFDC40;" width="330" height="44"/>
<rect x="256" y="176" style="fill:#FFAB15;" width="165" height="44"/>
<rect x="91" y="206" style="fill:#87E694;" width="330" height="44"/>
<rect x="256" y="206" style="fill:#66CC70;" width="165" height="44"/>
<path style="fill:#F2F2F2;" d="M421,381c0,8.284-6.716,15-15,15H106c-8.284,0-15-6.716-15-15v-85h89.997
	c9.31,0,17.688,4.938,21.868,12.888C213.277,328.695,233.638,341,256,341s42.723-12.305,53.135-32.111
	c4.18-7.95,12.559-12.889,21.868-12.889H421V381z"/>
<path style="fill:#FF6849;" d="M421,266h-89.997c-20.487,0-39.041,11.085-48.423,28.929C277.369,304.842,267.185,311,256,311
	s-21.369-6.158-26.58-16.071C220.038,277.085,201.484,266,180.997,266H91v-30h330V266z"/>
<path style="fill:#F2F2F2;" d="M421,146H91v-15c0-8.284,6.716-15,15-15h300c8.284,0,15,6.716,15,15V146z"/>
<path style="fill:#E5E5E5;" d="M331.003,296c-9.31,0-17.688,4.938-21.868,12.889C298.723,328.695,278.362,341,256,341v55h150
	c8.284,0,15-6.716,15-15v-85H331.003z"/>
<path style="fill:#FD4B2D;" d="M256,236v75c11.185,0,21.369-6.158,26.58-16.071C291.962,277.085,310.516,266,331.003,266H421v-30
	H256z"/>
<path style="fill:#E5E5E5;" d="M406,116H256v30h165v-15C421,122.716,414.284,116,406,116z"/>
<g>
</g>
<g>
</g>
<g>
</g>
<g>
</g>
<g>
</g>
<g>
</g>
<g>
</g>
<g>
</g>
<g>
</g>
<g>
</g>
<g>
</g>
<g>
</g>
<g>
</g>
<g>
</g>
<g>
</g>
</svg>
