<svg id="icon" xmlns="http://www.w3.org/2000/svg" viewBox="0 0 32 32"><defs><style>.cls-1{fill:none;}</style></defs><title>application</title><path d="M16,18H6a2,2,0,0,1-2-2V6A2,2,0,0,1,6,4H16a2,2,0,0,1,2,2V16A2,2,0,0,1,16,18ZM6,6V16H16V6Z" transform="translate(0 0)"/><path d="M26,12v4H22V12h4m0-2H22a2,2,0,0,0-2,2v4a2,2,0,0,0,2,2h4a2,2,0,0,0,2-2V12a2,2,0,0,0-2-2Z" transform="translate(0 0)"/><path d="M26,22v4H22V22h4m0-2H22a2,2,0,0,0-2,2v4a2,2,0,0,0,2,2h4a2,2,0,0,0,2-2V22a2,2,0,0,0-2-2Z" transform="translate(0 0)"/><path d="M16,22v4H12V22h4m0-2H12a2,2,0,0,0-2,2v4a2,2,0,0,0,2,2h4a2,2,0,0,0,2-2V22a2,2,0,0,0-2-2Z" transform="translate(0 0)"/><g id="_Transparent_Rectangle_" data-name="&lt;Transparent Rectangle&gt;"><rect class="cls-1" width="32" height="32"/></g></svg>