<?xml version="1.0" encoding="UTF-8"?><svg id="h" xmlns="http://www.w3.org/2000/svg" viewBox="0 0 1000 1000"><g id="i"><g style="isolation:isolate;"><path d="M97.01,790.9h26.11v104.07h-26.11v-11c-5.1,4.85-10.21,8.34-15.34,10.47-5.13,2.14-10.68,3.2-16.67,3.2-13.44,0-25.06-5.21-34.87-15.64-9.81-10.43-14.71-23.39-14.71-38.88s4.75-29.24,14.24-39.5c9.49-10.27,21.02-15.4,34.59-15.4,6.24,0,12.1,1.18,17.58,3.54,5.48,2.36,10.54,5.9,15.19,10.62v-11.48ZM69.56,812.32c-8.07,0-14.78,2.86-20.12,8.56-5.34,5.71-8.01,13.03-8.01,21.95s2.72,16.39,8.15,22.19c5.44,5.8,12.12,8.7,20.07,8.7s15-2.85,20.4-8.56c5.4-5.71,8.1-13.18,8.1-22.43s-2.7-16.39-8.1-22c-5.4-5.61-12.23-8.42-20.5-8.42Z" style="fill:#fd4b2d;"/><path d="M153.21,790.9h26.4v50.12c0,9.76.67,16.53,2.01,20.33,1.34,3.79,3.5,6.74,6.47,8.85,2.97,2.1,6.63,3.16,10.98,3.16s8.04-1.04,11.08-3.11c3.04-2.07,5.29-5.12,6.76-9.14,1.09-3,1.63-9.41,1.63-19.23v-50.98h26.11v44.1c0,18.17-1.44,30.61-4.3,37.31-3.51,8.16-8.67,14.43-15.5,18.8-6.83,4.37-15.5,6.55-26.02,6.55-11.42,0-20.65-2.55-27.69-7.65-7.05-5.1-12.01-12.21-14.87-21.33-2.04-6.31-3.06-17.79-3.06-34.44v-43.33Z" style="fill:#fd4b2d;"/><path d="M287.73,752.54h26.11v38.36h15.5v22.48h-15.5v81.59h-26.11v-81.59h-13.39v-22.48h13.39v-38.36Z" style="fill:#fd4b2d;"/><path d="M357.11,750.72h25.92v50.7c5.1-4.4,10.23-7.7,15.4-9.9s10.39-3.3,15.69-3.3c10.33,0,19.04,3.57,26.11,10.71,6.06,6.19,9.09,15.27,9.09,27.26v68.78h-25.73v-45.63c0-12.05-.57-20.21-1.72-24.49-1.15-4.27-3.11-7.46-5.88-9.57-2.77-2.1-6.2-3.16-10.28-3.16-5.29,0-9.84,1.75-13.63,5.26-3.8,3.51-6.43,8.29-7.89,14.35-.77,3.13-1.15,10.27-1.15,21.43v41.8h-25.92v-144.25Z" style="fill:#fd4b2d;"/><path d="M592.55,850.49h-83.89c1.21,7.4,4.45,13.28,9.71,17.65,5.26,4.37,11.97,6.55,20.14,6.55,9.76,0,18.14-3.41,25.16-10.23l22,10.33c-5.48,7.78-12.05,13.54-19.7,17.27-7.65,3.73-16.74,5.6-27.26,5.6-16.33,0-29.62-5.15-39.89-15.45-10.27-10.3-15.4-23.2-15.4-38.69s5.12-29.06,15.35-39.55c10.24-10.49,23.07-15.73,38.5-15.73,16.39,0,29.72,5.25,39.98,15.73,10.27,10.49,15.4,24.34,15.4,41.56l-.1,4.97ZM566.44,829.92c-1.72-5.8-5.13-10.52-10.2-14.16-5.08-3.63-10.97-5.45-17.68-5.45-7.28,0-13.67,2.04-19.16,6.12-3.45,2.55-6.64,7.05-9.58,13.49h56.63Z" style="fill:#fd4b2d;"/><path d="M627.41,790.9h26.11v10.67c5.92-4.99,11.29-8.46,16.09-10.42,4.81-1.95,9.73-2.93,14.76-2.93,10.32,0,19.07,3.6,26.27,10.81,6.05,6.12,9.07,15.18,9.07,27.17v68.78h-25.83v-45.57c0-12.42-.56-20.67-1.67-24.74-1.11-4.08-3.05-7.18-5.82-9.32-2.77-2.13-6.19-3.2-10.26-3.2-5.28,0-9.81,1.77-13.6,5.3-3.79,3.54-6.41,8.43-7.87,14.67-.76,3.25-1.14,10.29-1.14,21.11v41.75h-26.11v-104.07Z" style="fill:#fd4b2d;"/><path d="M761.83,752.54h26.11v38.36h15.5v22.48h-15.5v81.59h-26.11v-81.59h-13.39v-22.48h13.39v-38.36Z" style="fill:#fd4b2d;"/><path d="M841.31,748.04c4.58,0,8.5,1.66,11.78,4.97,3.28,3.32,4.91,7.33,4.91,12.05s-1.62,8.63-4.87,11.91c-3.24,3.29-7.12,4.93-11.64,4.93s-8.6-1.67-11.88-5.02c-3.28-3.35-4.91-7.41-4.91-12.2s1.62-8.51,4.86-11.77c3.24-3.25,7.15-4.88,11.73-4.88ZM828.25,790.9h26.11v104.07h-26.11v-104.07Z" style="fill:#fd4b2d;"/><path d="M891.99,750.72h26.11v83.08l38.45-42.91h32.8l-44.83,49.88,50.19,54.19h-32.42l-44.19-47.96v47.96h-26.11v-144.25Z" style="fill:#fd4b2d;"/></g></g><path d="M689.34,93.81h-329.14c-72.05,0-131,58.95-131,131v329.14c0,72.05,58.95,131,131,131h38.83v-128.22h251.49v128.22h38.81c72.05,0,131-58.95,131-131V224.81c0-72.05-58.95-131-131-131ZM632.3,452.55H229.41v-88.61h208.16v-123.03h33.8v73.29h19.82v-73.29h23.9v53.9h19.82v-53.9h23.9v90.04h19.82v-90.04h33.8v123.03h19.88v88.61Z" style="fill:#fd4b2d;"/><g id="j"><path d="M230.92,358.64h-.02c-19.61-26.52-49.01-53.52-81.58-53.52-37.46.03-71.89,20.57-89.7,53.52-37.21,64.9,14.23,152.42,89.7,150.42,58.4,0,106.56-86.64,106.56-101.97,0-6.78-9.42-27.46-24.96-48.46ZM107.07,358.64c21.02-18.14,51.54-23.42,73.6,0h.02c16.65,15.1,31.18,37.08,36.44,48.26-65.47,136.9-180.22,20.22-110.06-48.26Z" style="fill:#fd4b2d;"/></g></svg>