<svg
    width="100%"
    height="100%"
    viewBox="0 0 26 26"
    fill="none"
    xmlns="http://www.w3.org/2000/svg"
>
    <path
        d="M24.8209 8.47043C24.945 9.02228 25.169 9.54394 25.3035 10.0941C25.6166 11.3808 25.7312 12.7078 25.6434 14.0291C25.5566 15.3319 25.2674 16.6134 24.7863 17.8273C24.7587 17.9134 24.7371 18.0012 24.7215 18.0903C24.4425 18.6218 24.1921 19.1709 23.8797 19.6827C21.9216 22.8912 19.1238 24.9778 15.4234 25.6927C10.5912 26.6262 6.47839 25.2111 3.16725 21.5793C1.65391 19.9194 0.728655 17.9365 0.263559 15.7324C0.0215545 14.5777 -0.0555386 13.3945 0.0345802 12.2181C0.227867 9.60873 1.1328 7.2547 2.76036 5.19993C4.52081 2.98097 6.76228 1.43468 9.51826 0.771903C14.7606 -0.49105 19.1875 0.948167 22.7447 5.00664C23.5887 5.96978 24.2064 7.08063 24.7044 8.25792C24.7379 8.3304 24.7824 8.39849 24.8209 8.47043ZM1.53365 13.1439C1.53055 14.6277 1.82014 16.0975 2.38586 17.4692C2.95157 18.8409 3.78229 20.0875 4.83046 21.1377C5.87863 22.1879 7.12365 23.0211 8.49425 23.5895C9.86484 24.1578 11.3341 24.4503 12.8179 24.4501C19.0777 24.4545 24.1345 19.4191 24.1389 13.1807C24.1433 6.89064 19.1112 1.84981 12.8272 1.84926C11.3435 1.8473 9.87393 2.13813 8.50278 2.70506C7.13163 3.27199 5.88582 4.10389 4.83671 5.1531C3.78761 6.2023 2.95583 7.4482 2.38903 8.8194C1.82223 10.1906 1.53155 11.6602 1.53365 13.1439Z"
        fill="#8CC440"
    />
    <path
        d="M13.1462 22.679C10.3472 22.6172 7.82329 21.7514 5.5745 20.0817C5.40977 19.9582 5.38396 19.872 5.50477 19.6941C6.01818 18.9379 6.51458 18.1703 7.01866 17.4076C7.25917 17.0435 7.25972 17.0457 7.60731 17.2901C8.92517 18.2148 10.349 18.8962 11.9409 19.1872C12.8288 19.352 13.7249 19.4069 14.6035 19.1466C15.4058 18.9088 16.0125 18.4569 16.1328 17.5487C16.1981 17.0545 16.0779 16.6245 15.7193 16.2715C15.1894 15.7482 14.5184 15.4797 13.8287 15.2584C12.5334 14.8432 11.2194 14.4863 9.94707 13.9993C8.92737 13.6088 8.00706 13.0729 7.2718 12.2421C6.37071 11.2224 6.14118 10.0182 6.25046 8.71462C6.45582 6.2579 8.23165 4.42772 10.8311 3.84401C12.8958 3.38056 14.8995 3.67214 16.8653 4.36512C17.7075 4.66945 18.517 5.0578 19.2814 5.52429C19.512 5.66266 19.5697 5.76096 19.4181 6.01849C18.9393 6.82843 18.4874 7.65429 18.0393 8.4818C17.9322 8.68002 17.863 8.73054 17.6423 8.6004C16.4793 7.91456 15.2526 7.37808 13.9199 7.11781C13.1231 6.96076 12.3242 6.91518 11.5318 7.14526C10.645 7.40279 10.1123 8.06337 10.1189 8.87825C10.1222 9.26867 10.2837 9.58221 10.5692 9.8381C11.2561 10.4504 12.1067 10.7458 12.9523 11.0352C14.1604 11.4486 15.3992 11.7776 16.5693 12.302C17.3672 12.6594 18.1101 13.1031 18.7394 13.7181C19.6147 14.5731 20.0447 15.6092 20.0414 16.8382C20.0375 18.3411 19.6465 19.6935 18.5692 20.7879C17.7367 21.6341 16.7022 22.1184 15.565 22.4017C14.774 22.5978 13.961 22.691 13.1462 22.679Z"
        fill="#8CC440"
    />
</svg>
