<svg id="Layer_1" data-name="Layer 1" xmlns="http://www.w3.org/2000/svg" viewBox="0 0 994.71 151.65"><defs><style>.cls-1{fill:#fd4b2d;}</style></defs><path class="cls-1" d="M284.72,50.4H305.5v82.84H284.72v-8.76a40.79,40.79,0,0,1-12.21,8.34,34.14,34.14,0,0,1-13.27,2.55q-16.05,0-27.76-12.45T219.77,92q0-19.18,11.33-31.45t27.53-12.26a34.94,34.94,0,0,1,14,2.82,38.32,38.32,0,0,1,12.1,8.45ZM262.87,67.45a21,21,0,0,0-16,6.82q-6.37,6.81-6.38,17.47T247,109.4a21,21,0,0,0,16,6.93,21.42,21.42,0,0,0,16.24-6.81q6.45-6.81,6.45-17.86,0-10.8-6.45-17.51A21.71,21.71,0,0,0,262.87,67.45Z"/><path class="cls-1" d="M335.8,50.4h21V90.29q0,11.65,1.6,16.18a14.16,14.16,0,0,0,5.16,7,14.76,14.76,0,0,0,8.74,2.51,15.25,15.25,0,0,0,8.81-2.48,14.49,14.49,0,0,0,5.38-7.27q1.31-3.57,1.3-15.3V50.4h20.79V85.5q0,21.69-3.43,29.69a32.32,32.32,0,0,1-12.33,15q-8.16,5.22-20.71,5.22-13.64,0-22.05-6.09a32.2,32.2,0,0,1-11.84-17q-2.43-7.55-2.43-27.41Z"/><path class="cls-1" d="M441.32,19.86H462.1V50.4h12.34V68.29H462.1v65H441.32V68.29H430.66V50.4h10.66Z"/><path class="cls-1" d="M495,18.42h20.63V58.77a47.41,47.41,0,0,1,12.26-7.88,31.62,31.62,0,0,1,12.49-2.63,28.13,28.13,0,0,1,20.78,8.53q7.23,7.4,7.24,21.7v54.75H547.9V96.92q0-14.4-1.37-19.49a13.6,13.6,0,0,0-4.68-7.62,13.19,13.19,0,0,0-8.18-2.51,15.43,15.43,0,0,0-10.85,4.19,22.14,22.14,0,0,0-6.28,11.42q-.91,3.72-.92,17v33.28H495Z"/><path class="cls-1" d="M680.84,97.83H614.06a22.25,22.25,0,0,0,7.73,14q6.29,5.22,16,5.21a27.7,27.7,0,0,0,20-8.14l17.51,8.22a41.31,41.31,0,0,1-15.68,13.74q-9.13,4.46-21.7,4.46-19.5,0-31.75-12.3T594,92.27q0-19,12.22-31.48t30.65-12.53q19.56,0,31.82,12.53t12.26,33.08ZM660.05,81.46a20.87,20.87,0,0,0-8.12-11.27,23.61,23.61,0,0,0-14.08-4.34,24.88,24.88,0,0,0-15.25,4.88q-4.11,3-7.62,10.73Z"/><path class="cls-1" d="M707,50.4H727.8v8.49a50.15,50.15,0,0,1,12.81-8.3,31.08,31.08,0,0,1,11.75-2.33,28.44,28.44,0,0,1,20.91,8.61q7.22,7.31,7.22,21.62v54.75H759.93V97q0-14.83-1.33-19.7A13.48,13.48,0,0,0,754,69.85a13,13,0,0,0-8.16-2.55A15.32,15.32,0,0,0,735,71.52a22.6,22.6,0,0,0-6.27,11.67q-.9,3.89-.91,16.81v33.24H707Z"/><path class="cls-1" d="M812.46,19.86h20.79V50.4h12.33V68.29H833.25v65H812.46V68.29H801.8V50.4h10.66Z"/><path class="cls-1" d="M874.16,16.29a12.74,12.74,0,0,1,9.38,3.95,13.18,13.18,0,0,1,3.91,9.6,13,13,0,0,1-3.87,9.48,12.6,12.6,0,0,1-9.27,3.92,12.73,12.73,0,0,1-9.45-4A13.39,13.39,0,0,1,861,29.53a12.78,12.78,0,0,1,3.87-9.36A12.71,12.71,0,0,1,874.16,16.29Z"/><rect class="cls-1" x="863.77" y="50.4" width="20.79" height="82.84"/><path class="cls-1" d="M913,18.42h20.78V84.55L964.34,50.4h26.11L954.76,90.1l40,43.14h-25.8L933.73,95.06v38.18H913Z"/><rect class="cls-1" x="107.1" y="34.93" width="6.37" height="18.2"/><rect class="cls-1" x="123.67" y="34.16" width="6.37" height="14.23"/><path class="cls-1" d="M30.83,55A23.23,23.23,0,0,0,10.41,67.13h10.8C26,63,32.94,61.8,38,67.13H49.39C44.93,61.09,38.24,55,30.83,55Z"/><path class="cls-1" d="M46.25,78.11c-14.89,31.15-41,4.6-25-11H10.41c-8.47,14.76,3.24,34.68,20.42,34.23,13.28,0,24.24-19.72,24.24-23.21,0-1.54-2.14-6.25-5.68-11H38A40.52,40.52,0,0,1,46.25,78.11Zm.4-.91Z"/><path class="cls-1" d="M189.62,34.71V117A28.62,28.62,0,0,1,161,145.54H148.89v-28H90.94v28H78.81A28.62,28.62,0,0,1,50.22,117V91.08h91.87V41.62H97.74V69.41H50.22V34.71a27.43,27.43,0,0,1,.19-3.29,27.09,27.09,0,0,1,.71-3.84c.1-.41.22-.82.34-1.21a2.13,2.13,0,0,1,.09-.3c.07-.21.13-.4.2-.59s.14-.4.21-.59.16-.44.25-.65.18-.43.26-.64a29.35,29.35,0,0,1,2.6-4.82l0-.05c.26-.37.53-.75.81-1.12s.47-.61.7-.91.57-.67.86-1,.56-.63.86-.93l0,0a4.53,4.53,0,0,1,.49-.49,29.23,29.23,0,0,1,3.4-2.84c.32-.24.66-.46,1-.68s.77-.49,1.17-.72a23.78,23.78,0,0,1,2.29-1.21l.75-.34a27.84,27.84,0,0,1,3.35-1.21c.44-.13.88-.24,1.33-.35a6.19,6.19,0,0,1,.65-.15,28.86,28.86,0,0,1,3.87-.57l.56,0h.28c.43,0,.87,0,1.31,0H161c.43,0,.87,0,1.3,0h.28l.56,0a29.25,29.25,0,0,1,3.88.57c.22,0,.43.09.65.15.45.11.88.22,1.32.35a27.23,27.23,0,0,1,3.35,1.21l.75.34a25.19,25.19,0,0,1,2.3,1.21c.39.23.78.47,1.16.72s.69.44,1,.68a29.23,29.23,0,0,1,3.91,3.36q.45.45.87.93c.29.32.57.66.85,1l.71.91c.28.37.54.75.8,1.12l0,.05a28.61,28.61,0,0,1,2.6,4.82l.27.64.24.65c.08.19.15.39.22.59l.19.59c0,.09.06.19.1.3.11.39.23.8.34,1.21a28.56,28.56,0,0,1,.7,3.84A27.42,27.42,0,0,1,189.62,34.71Z"/><path class="cls-1" d="M184.76,18.78H55.07A28.59,28.59,0,0,1,78.8,6.12H161A28.59,28.59,0,0,1,184.76,18.78Z"/><path class="cls-1" d="M189.43,31.43H50.4a28.29,28.29,0,0,1,4.67-12.65H184.76A28.17,28.17,0,0,1,189.43,31.43Z"/><path class="cls-1" d="M189.63,34.71v9.37H142.09V41.62H97.74v2.46H50.21V34.71a27.43,27.43,0,0,1,.19-3.29h139A27.42,27.42,0,0,1,189.63,34.71Z"/><rect class="cls-1" x="50.21" y="44.08" width="47.54" height="12.66"/><rect class="cls-1" x="142.09" y="44.08" width="47.54" height="12.66"/><rect class="cls-1" x="50.21" y="56.74" width="47.54" height="12.65"/><rect class="cls-1" x="142.09" y="56.74" width="47.54" height="12.65"/></svg>