<svg xmlns="http://www.w3.org/2000/svg" width="750" height="250" viewBox="0 0 7496 2500" fill="#ffffff">
  <path d="M725 2489c-310-45-554-253-619-529-21-86-21-313-1-398 31-129 112-250 219-326 118-85 226-127 615-241 216-63 327-126 351-201 7-20 10-64 8-99-3-50-10-70-32-100-57-74-149-108-296-108-207 0-385 68-595 228l-82 63-142-179c-78-99-144-186-147-193-6-16 106-111 211-178 357-230 868-280 1199-119 264 128 397 370 384 696-9 226-84 370-253 490-118 84-225 128-540 221-241 72-330 110-375 160-82 94-54 250 55 311 22 12 71 27 110 34 169 29 380-37 610-190 33-22 63-37 67-33 4 4 63 94 133 200l125 194-22 19c-59 49-194 133-272 169-212 98-491 141-711 109z"/>
  <path d="M3032 2490c-392-55-719-296-892-656-86-179-119-320-127-539-4-124-2-185 12-269 85-546 481-947 1002-1017 108-14 330-7 430 15 94 20 215 67 280 108l52 33-131 202-130 202-37-19c-101-51-278-72-409-47-132 25-221 74-322 176-131 131-197 279-221 490-26 226 52 473 197 630 81 88 156 137 264 175 75 26 98 30 195 30 117-1 159-9 268-51 37-14 69-24 71-22 2 2 61 91 130 198l127 194-23 25c-36 39-180 102-282 123-105 22-357 33-454 19z"/>
  <path d="M4120 1250V0h137c221 0 299 35 362 162 27 52 31 72 31 138 0 42-5 103-12 135-11 57-11 59 14 80 53 46 60 84 22 122-14 14-24 26-22 27 105 63 112 80 73 175-44 109-25 153 93 216 91 48 127 139 83 210-10 17-63 91-117 165-198 269-200 274-138 395 32 64 35 75 30 130-3 35-30 131-64 230-63 184-74 208-121 273l-31 42h-170V1250z"/>
  <path d="M5210 1250V0h250l250 1 2 819 3 820 314-505c173-277 319-504 325-504s27 27 46 59c19 32 161 261 315 509l280 450 3-824 2-824h250l250 1v2499h-273l-272-1-213-362c-350-595-371-631-381-641-11-11 18-59-322 521l-283 482h-273l-273-1V1250z"/>
</svg>
