<svg viewBox="0 0 24 24" fill="none" xmlns="http://www.w3.org/2000/svg">
<path d="M2.97739 6C4.62176 6 5.95479 4.65685 5.95479 3C5.95479 1.34314 4.62176 0 2.97739 0C1.33302 0 0 1.34314 0 3C0 4.65685 1.33302 6 2.97739 6Z" fill="#63C740"/>
<path d="M11.9097 6C13.554 6 14.8871 4.65685 14.8871 3C14.8871 1.34314 13.554 0 11.9097 0C10.2653 0 8.93225 1.34314 8.93225 3C8.93225 4.65685 10.2653 6 11.9097 6Z" fill="#5CABDF"/>
<path d="M20.8418 6C22.4861 6 23.8192 4.65685 23.8192 3C23.8192 1.34314 22.4861 0 20.8418 0C19.1974 0 17.8644 1.34314 17.8644 3C17.8644 4.65685 19.1974 6 20.8418 6Z" fill="#D66C7B"/>
<path d="M2.97739 15C4.62176 15 5.95479 13.6569 5.95479 12C5.95479 10.3432 4.62176 9.00002 2.97739 9.00002C1.33302 9.00002 0 10.3432 0 12C0 13.6569 1.33302 15 2.97739 15Z" fill="#C98DEF"/>
<path d="M11.9097 15C13.554 15 14.8871 13.6569 14.8871 12C14.8871 10.3432 13.554 9.00002 11.9097 9.00002C10.2653 9.00002 8.93225 10.3432 8.93225 12C8.93225 13.6569 10.2653 15 11.9097 15Z" fill="#FAA669"/>
<path d="M2.97739 24C4.62176 24 5.95479 22.6569 5.95479 21C5.95479 19.3432 4.62176 18 2.97739 18C1.33302 18 0 19.3432 0 21C0 22.6569 1.33302 24 2.97739 24Z" fill="#3AEFC4"/>
</svg>
