<svg id="Layer_1" data-name="Layer 1" xmlns="http://www.w3.org/2000/svg" viewBox="0 0 1000 144.29"><defs><style>.cls-1{fill:#fd4b2d;}</style></defs><path class="cls-1" d="M106,41.08h25.39v101.2H106v-10.7a50,50,0,0,1-14.92,10.19,41.84,41.84,0,0,1-16.21,3.11q-19.61,0-33.91-15.21T26.64,91.86q0-23.43,13.85-38.41t33.63-15a42.78,42.78,0,0,1,17.09,3.44A46.82,46.82,0,0,1,106,52.24ZM79.29,61.91a25.65,25.65,0,0,0-19.56,8.33q-7.78,8.33-7.79,21.34t7.93,21.58a25.66,25.66,0,0,0,19.51,8.47,26.15,26.15,0,0,0,19.84-8.33q7.88-8.33,7.88-21.81,0-13.2-7.88-21.39T79.29,61.91Z"/><path class="cls-1" d="M168.39,41.08h25.67V89.82q0,14.22,2,19.76a17.24,17.24,0,0,0,6.29,8.61A18.06,18.06,0,0,0,213,121.26a18.6,18.6,0,0,0,10.77-3,17.7,17.7,0,0,0,6.57-8.88q1.59-4.36,1.59-18.7V41.08h25.39V84q0,26.51-4.18,36.27a39.6,39.6,0,0,1-15.07,18.28q-10,6.38-25.3,6.37-16.65,0-26.93-7.44T171.36,116.7q-3-9.21-3-33.49Z"/><path class="cls-1" d="M297.3,3.78h25.39v37.3h15.07V62.93H322.69v79.35H297.3V62.93h-13V41.08h13Z"/><path class="cls-1" d="M362.86,2h25.21v49.3a57.74,57.74,0,0,1,15-9.63,38.56,38.56,0,0,1,15.25-3.21,34.36,34.36,0,0,1,25.39,10.42q8.83,9,8.84,26.51v66.88h-25V97.91q0-17.58-1.68-23.81t-5.71-9.3a16.07,16.07,0,0,0-10-3.07,18.85,18.85,0,0,0-13.26,5.11q-5.53,5.11-7.67,14-1.12,4.56-1.12,20.84v40.65H362.86Z"/><path class="cls-1" d="M589.91,99H508.33q1.77,10.78,9.44,17.16t19.58,6.37a33.86,33.86,0,0,0,24.46-10l21.4,10a50.54,50.54,0,0,1-19.16,16.79q-11.16,5.44-26.51,5.44-23.82,0-38.79-15t-15-37.63q0-23.16,14.93-38.46t37.44-15.3q23.91,0,38.88,15.3t15,40.42Zm-25.4-20a25.48,25.48,0,0,0-9.92-13.77A28.81,28.81,0,0,0,537.4,60a30.42,30.42,0,0,0-18.64,5.95q-5,3.72-9.31,13.12Z"/><path class="cls-1" d="M621.89,41.08h25.39V51.45q8.64-7.29,15.65-10.13a37.82,37.82,0,0,1,14.35-2.85A34.77,34.77,0,0,1,702.83,49q8.82,8.94,8.82,26.42v66.88H686.54V98q0-18.12-1.63-24.06a16.44,16.44,0,0,0-5.66-9.06,15.8,15.8,0,0,0-10-3.11,18.73,18.73,0,0,0-13.23,5.15Q650.53,72,648.4,81.14q-1.12,4.74-1.12,20.54v40.6H621.89Z"/><path class="cls-1" d="M750.71,3.78H776.1v37.3h15.07V62.93H776.1v79.35H750.71V62.93h-13V41.08h13Z"/><path class="cls-1" d="M826.09-.6a15.55,15.55,0,0,1,11.45,4.84A16.08,16.08,0,0,1,842.31,16a15.87,15.87,0,0,1-4.72,11.58,15.34,15.34,0,0,1-11.32,4.79,15.6,15.6,0,0,1-11.55-4.88A16.35,16.35,0,0,1,810,15.59a15.57,15.57,0,0,1,4.73-11.44A15.53,15.53,0,0,1,826.09-.6Z"/><rect class="cls-1" x="813.39" y="41.08" width="25.39" height="101.2"/><path class="cls-1" d="M873.47,2h25.39V82.8l37.39-41.72h31.89l-43.59,48.5,48.81,52.7H941.83l-43-46.64v46.64H873.47Z"/></svg>