<svg width="166" height="45" viewBox="0 0 166 45" fill="none" xmlns="http://www.w3.org/2000/svg">
    <g clip-path="url(#clip0_254_203893)">
        <path d="M111.267 34.6522C111.267 35.7201 111.23 36.7312 111.277 37.738C111.328 38.8352 111.361 38.8335 110.273 38.8335C108.601 38.8335 106.928 38.8201 105.256 38.8436C104.863 38.8486 104.745 38.765 104.747 38.3502C104.762 32.3051 104.765 26.2595 104.757 20.2134C104.757 13.6387 104.754 7.06375 104.748 0.488525C104.748 0.115553 104.832 -0.00486803 105.224 0.000149525C107.064 0.0227285 108.904 0.00851221 110.743 0.011021C111.349 0.011021 111.288 -0.0608971 111.288 0.536192C111.288 5.28615 111.288 10.0364 111.288 14.7869C111.288 14.9316 111.243 15.0854 111.351 15.2602C112.077 14.2887 112.91 13.403 113.836 12.6201C116.023 10.7519 118.577 10.0905 121.397 10.236C124.557 10.4032 127.295 11.5497 129.559 13.7591C131.628 15.7779 132.939 18.2373 133.507 21.0613C134.185 24.4281 134.08 27.7732 132.801 30.9953C131.216 34.9876 128.445 37.7765 124.235 38.9447C121.392 39.7333 118.548 39.6907 115.838 38.4179C114.18 37.6402 112.818 36.4402 111.618 35.0612C111.512 34.9382 111.407 34.8153 111.267 34.6522ZM119.492 15.7252C116.911 15.7737 114.876 16.6526 113.303 18.4974C110.46 21.8307 110.314 27.2003 112.946 30.7068C116.35 35.2393 123.205 34.9391 125.992 30.0662C127.857 26.8106 127.898 23.3803 126.243 20.0353C124.854 17.2296 122.454 15.8406 119.492 15.7252Z" fill="#434343"/>
        <path d="M155.6 27.0456H145.693C145.5 27.0456 145.269 26.9662 145.344 27.3408C145.896 30.1147 147.238 32.3525 149.943 33.4238C153.121 34.6782 156.19 34.3018 159.026 32.3408C159.623 31.9316 160.183 31.4722 160.702 30.9677C160.875 30.8004 160.983 30.7829 161.175 30.956C162.269 31.9461 163.372 32.9254 164.486 33.8937C164.704 34.0836 164.68 34.1873 164.506 34.3846C161.587 37.6803 157.957 39.4114 153.527 39.4365C149.656 39.4557 146.2 38.341 143.325 35.6934C140.844 33.4087 139.447 30.5412 138.998 27.212C138.549 23.8829 138.955 20.6775 140.513 17.6787C142.501 13.8595 145.567 11.3114 149.826 10.4935C154.19 9.65727 158.229 10.471 161.585 13.5877C163.515 15.3806 164.667 17.6486 165.336 20.1716C165.912 22.2987 166.114 24.5097 165.934 26.7061C165.906 27.0297 165.76 27.0456 165.509 27.0448C162.206 27.0431 158.903 27.0434 155.6 27.0456ZM152.404 22.8075C154.675 22.8075 156.946 22.7991 159.216 22.8167C159.562 22.8167 159.606 22.7046 159.557 22.4119C159.389 21.4352 159.153 20.4818 158.74 19.5761C156.551 14.7743 150.773 14.5736 147.944 17.212C146.411 18.6412 145.622 20.4383 145.275 22.4671C145.227 22.7523 145.317 22.815 145.59 22.8133C147.863 22.8033 150.134 22.8075 152.405 22.8075H152.404Z" fill="#434343"/>
        <path d="M37.8006 17.4682C40.1053 13.5745 43.4813 11.1887 47.9394 10.4294C50.7668 9.94769 53.5808 10.1317 56.2786 11.182C58.2923 11.9664 59.9915 13.2409 61.4859 14.7972C61.6674 14.9861 61.6448 15.0873 61.4793 15.2646C60.2801 16.5469 59.0887 17.8339 57.9051 19.1256C57.7194 19.3288 57.6266 19.2929 57.456 19.1189C56.7179 18.3793 55.9084 17.7145 55.0392 17.1345C52.0095 15.0773 46.654 15.0999 43.8425 19.5513C41.6055 23.0928 41.9041 28.0159 44.5843 31.1285C47.1198 34.0729 51.6198 34.7963 54.9589 32.7951C55.9653 32.1971 56.8948 31.4785 57.727 30.6551C57.9369 30.4461 58.0615 30.4285 58.2814 30.651C59.4014 31.7766 60.5326 32.8916 61.6749 33.996C61.8807 34.1942 61.848 34.3121 61.6749 34.4978C58.7229 37.6555 55.1747 39.4451 50.7676 39.4501C46.6607 39.4501 43.0983 38.1631 40.1296 35.3098C39.27 34.4726 38.5241 33.5262 37.911 32.4949C37.8323 32.3653 37.7378 32.244 37.6509 32.1203C37.6751 31.9848 37.708 31.851 37.7496 31.7197C38.4815 29.8708 38.9219 27.9194 39.055 25.9353C39.1883 23.923 39.0137 21.9022 38.5373 19.9427C38.3308 19.1031 37.9904 18.3086 37.8006 17.4682Z" fill="#434343"/>
        <path d="M37.8005 17.4686C37.9895 18.309 38.3307 19.1034 38.5356 19.9414C39.0124 21.9009 39.1869 23.9218 39.0532 25.934C38.9209 27.9182 38.4805 29.8697 37.7478 31.7184C37.7059 31.8496 37.673 31.9834 37.6492 32.119C37.2243 32.9285 36.843 33.7647 36.3672 34.5441C33.3851 39.4304 29.1243 42.6082 23.4888 43.697C16.1297 45.1186 9.86612 42.9636 4.82347 37.4326C2.51874 34.9046 1.10965 31.8848 0.401335 28.5281C0.0327779 26.7695 -0.08463 24.9676 0.0526153 23.176C0.346979 19.2021 1.72513 15.6171 4.20381 12.4878C6.88486 9.10848 10.2985 6.75357 14.4957 5.7442C22.4794 3.82081 29.2213 6.01264 34.6386 12.1934C35.924 13.6602 36.8648 15.352 37.6232 17.1449C37.6743 17.2553 37.742 17.359 37.8005 17.4686ZM2.3356 24.586C2.33087 26.8457 2.77191 29.0841 3.63346 31.1731C4.495 33.2621 5.76014 35.1607 7.35643 36.7601C8.95272 38.3595 10.8488 39.6283 12.9361 40.4939C15.0235 41.3595 17.261 41.8049 19.5207 41.8045C29.0541 41.8112 36.7552 34.1427 36.7619 24.642C36.7686 15.0626 29.1051 7.38578 19.535 7.38494C17.2753 7.38197 15.0373 7.82487 12.9491 8.68827C10.861 9.55167 8.96368 10.8186 7.36595 12.4165C5.76823 14.0144 4.50149 15.9118 3.63829 18C2.77509 20.0883 2.33241 22.3263 2.3356 24.586Z" fill="#8CC440"/>
        <path d="M74.1839 16.7181C74.7082 15.7815 75.2167 14.8491 75.8706 14.0036C77.3759 12.0526 79.2466 10.6711 81.7495 10.294C82.3971 10.2047 83.0501 10.16 83.7039 10.1602C84.0325 10.1602 84.122 10.248 84.117 10.5783C84.1011 12.4181 84.1094 14.2578 84.1094 16.0976C84.1094 16.9999 84.1095 16.9941 83.1846 17.0175C81.6015 17.0635 80.1013 17.4356 78.7256 18.2334C76.5789 19.4794 75.363 21.417 74.7065 23.7527C74.3515 25.0421 74.1757 26.3742 74.1839 27.7116C74.1839 31.2632 74.1839 34.8156 74.1906 38.3672C74.1906 38.6816 74.1312 38.7937 73.7858 38.7903C71.863 38.7719 69.9396 38.7719 68.0156 38.7903C67.7163 38.7903 67.651 38.7067 67.6519 38.4174C67.6591 29.3356 67.6591 20.2535 67.6519 11.1712C67.6519 10.8768 67.6987 10.7631 68.0324 10.7664C69.9552 10.7843 71.8786 10.7843 73.8026 10.7664C74.1253 10.7664 74.1931 10.8618 74.1906 11.167C74.1772 13.0101 74.1839 14.8658 74.1839 16.7181Z" fill="#434343"/>
        <path d="M96.51 24.8401C96.51 29.3665 96.5128 33.8932 96.5183 38.4201C96.5183 38.7672 96.4347 38.8575 96.086 38.8541C94.1919 38.8366 92.2969 38.8399 90.3994 38.8541C90.0984 38.8541 89.9746 38.8148 89.9746 38.4603C89.9863 29.3785 89.9863 20.297 89.9746 11.2158C89.9746 10.913 90.0365 10.8169 90.3584 10.8194C92.2813 10.8361 94.2047 10.8361 96.1286 10.8194C96.4531 10.8194 96.5142 10.9172 96.5142 11.2191C96.5063 15.7583 96.505 20.2987 96.51 24.8401Z" fill="#434343"/>
        <path d="M93.1835 0.401799C94.2272 0.401799 95.2742 0.410998 96.3153 0.395946C96.5888 0.395946 96.7008 0.437759 96.6983 0.75052C96.6822 2.55963 96.6822 4.36874 96.6983 6.17784C96.6983 6.47472 96.6147 6.5458 96.3262 6.54413C94.2383 6.53242 92.1505 6.53242 90.0626 6.54413C89.7448 6.54413 89.6704 6.45465 89.6729 6.14523C89.688 4.364 89.6905 2.58276 89.6729 0.801531C89.6729 0.457829 89.7783 0.383402 90.0961 0.393437C91.1247 0.413507 92.1533 0.401799 93.1835 0.401799Z" fill="#434343"/>
        <path d="M20.021 39.1081C15.7583 39.0138 11.9145 37.6953 8.48977 35.1525C8.2389 34.9644 8.19959 34.8331 8.38357 34.5621C9.16547 33.4106 9.92145 32.2415 10.6891 31.08C11.0554 30.5255 11.0563 30.5289 11.5856 30.901C13.5926 32.3093 15.761 33.3471 18.1854 33.7903C19.5376 34.0412 20.9024 34.1248 22.2404 33.7284C23.4622 33.3663 24.3862 32.6781 24.5694 31.2949C24.6689 30.5422 24.4857 29.8875 23.9397 29.3497C23.1327 28.5528 22.1108 28.1439 21.0604 27.8068C19.0877 27.1746 17.0865 26.6311 15.1489 25.8893C13.596 25.2947 12.1944 24.4785 11.0747 23.2133C9.70235 21.6603 9.35279 19.8264 9.51921 17.8411C9.83197 14.0997 12.5364 11.3125 16.4953 10.4235C19.6396 9.71772 22.6911 10.1618 25.6849 11.2171C26.9676 11.6806 28.2003 12.272 29.3645 12.9825C29.7157 13.1932 29.8035 13.3429 29.5727 13.7351C28.8435 14.9686 28.1552 16.2263 27.4729 17.4866C27.3098 17.7885 27.2044 17.8654 26.8682 17.6672C25.097 16.6227 23.2288 15.8057 21.1992 15.4093C19.9858 15.1701 18.7691 15.1007 17.5624 15.4511C16.2118 15.8433 15.4006 16.8493 15.4107 18.0903C15.4157 18.6849 15.6615 19.1624 16.0964 19.5521C17.1425 20.4846 18.4379 20.9345 19.7258 21.3752C21.5655 22.0049 23.4521 22.5058 25.2342 23.3044C26.4493 23.8488 27.5807 24.5245 28.5391 25.4611C29.8721 26.7632 30.5269 28.3412 30.5219 30.2128C30.516 32.5016 29.9206 34.5613 28.2799 36.228C27.0121 37.5166 25.4366 38.2542 23.7047 38.6857C22.5 38.9843 21.2619 39.1262 20.021 39.1081Z" fill="#8CC440"/>
    </g>
    <defs>
        <clipPath id="clip0_254_203893">
            <rect width="166" height="44.1227" fill="white"/>
        </clipPath>
    </defs>
</svg>
